<?xml version="1.0" standalone="no"?>
<!DOCTYPE svg PUBLIC "-//W3C//DTD SVG 20010904//EN"
 "http://www.w3.org/TR/2001/REC-SVG-20010904/DTD/svg10.dtd">
<svg version="1.0" xmlns="http://www.w3.org/2000/svg"
 width="512.000000pt" height="512.000000pt" viewBox="0 0 512.000000 512.000000"
 preserveAspectRatio="xMidYMid meet">
<metadata>
Created by potrace 1.11, written by Peter Selinger 2001-2013
</metadata>
<g transform="translate(0.000000,512.000000) scale(0.100000,-0.100000)"
fill="#000000" stroke="none">
<path d="M904 4012 c-13 -2 -23 -12 -25 -25 -7 -38 -2 -778 5 -847 33 -337
180 -646 420 -883 269 -265 600 -405 976 -412 312 -7 572 69 833 242 148 98
319 273 408 418 43 70 48 79 74 131 l26 51 192 1 c224 0 290 12 413 72 219
108 358 329 363 578 8 350 -271 655 -614 672 -81 4 -3044 6 -3071 2z m3112
-361 c128 -34 222 -158 225 -296 2 -84 -31 -167 -92 -226 -75 -74 -146 -95
-309 -94 l-105 1 3 44 c1 25 5 163 7 308 3 145 7 267 9 271 7 11 215 5 262 -8z"/>
<path d="M541 1657 c7 -12 26 -44 44 -72 18 -27 77 -124 131 -213 55 -90 110
-175 123 -188 13 -13 48 -36 78 -50 l55 -27 1331 0 c1414 0 1372 -2 1442 46
56 39 58 42 244 349 55 93 101 170 101 172 0 2 -801 4 -1780 4 l-1780 1 11
-22z"/>
</g>
</svg>
